<svg id="visual" viewBox="0 0 960 540" width="960" height="540" xmlns="http://www.w3.org/2000/svg" xmlns:xlink="http://www.w3.org/1999/xlink" version="1.1"><rect x="0" y="0" width="960" height="540" fill="#001220"></rect><defs><linearGradient id="grad1_0" x1="43.8%" y1="100%" x2="100%" y2="0%"><stop offset="14.444444444444446%" stop-color="#001220" stop-opacity="1"></stop><stop offset="85.55555555555554%" stop-color="#001220" stop-opacity="1"></stop></linearGradient></defs><defs><linearGradient id="grad2_0" x1="0%" y1="100%" x2="56.3%" y2="0%"><stop offset="14.444444444444446%" stop-color="#001220" stop-opacity="1"></stop><stop offset="85.55555555555554%" stop-color="#001220" stop-opacity="1"></stop></linearGradient></defs><g transform="translate(960, 540)"><path d="M-243 0C-232.3 -29.2 -221.7 -58.3 -210.6 -87.3C-199.6 -116.2 -188.3 -144.8 -169 -169C-149.7 -193.2 -122.5 -212.9 -93 -224.5C-63.5 -236.1 -31.8 -239.5 0 -243L0 0Z" fill="#F7DC2A"></path></g><g transform="translate(0, 0)"><path d="M243 0C240.1 32.5 237.1 64.9 224.5 93C211.9 121.1 189.5 144.8 166.2 166.2C142.8 187.5 118.6 206.5 90.7 219C62.8 231.4 31.4 237.2 0 243L0 0Z" fill="#F7DC2A"></path></g></svg>