<svg id="visual" viewBox="0 0 900 600" width="900" height="600" xmlns="http://www.w3.org/2000/svg" xmlns:xlink="http://www.w3.org/1999/xlink" version="1.1"><rect x="0" y="0" width="900" height="600" fill="#001220"></rect><defs><linearGradient id="grad1_0" x1="33.3%" y1="0%" x2="100%" y2="100%"><stop offset="20%" stop-color="#001220" stop-opacity="1"></stop><stop offset="80%" stop-color="#001220" stop-opacity="1"></stop></linearGradient></defs><defs><linearGradient id="grad2_0" x1="0%" y1="0%" x2="66.7%" y2="100%"><stop offset="20%" stop-color="#001220" stop-opacity="1"></stop><stop offset="80%" stop-color="#001220" stop-opacity="1"></stop></linearGradient></defs><g transform="translate(900, 0)"><path d="M0 243.4C-30 235.9 -60 228.4 -90.3 218C-120.6 207.6 -151.2 194.3 -172.1 172.1C-193 149.9 -204.1 118.9 -214.3 88.8C-224.6 58.6 -234 29.3 -243.4 0L0 0Z" fill="#F7DC2A"></path></g><g transform="translate(0, 600)"><path d="M0 -243.4C27.4 -228.2 54.9 -213 83.8 -202.3C112.7 -191.6 143.2 -185.4 168.3 -168.3C193.4 -151.1 213.2 -123 224.8 -93.1C236.5 -63.3 239.9 -31.6 243.4 0L0 0Z" fill="#F7DC2A"></path></g></svg>